<mxfile host="app.diagrams.net" modified="2023-05-03T14:19:46.028Z" agent="Mozilla/5.0 (Windows NT 10.0; Win64; x64) AppleWebKit/537.36 (KHTML, like Gecko) Chrome/112.0.0.0 Safari/537.36" etag="WwPVET6KPwgvgOy-kI9u" version="21.2.6" type="device">
  <diagram name="Page-1" id="13e1069c-82ec-6db2-03f1-153e76fe0fe0">
    <mxGraphModel dx="1304" dy="643" grid="1" gridSize="10" guides="1" tooltips="1" connect="1" arrows="1" fold="1" page="1" pageScale="1" pageWidth="1100" pageHeight="850" background="none" math="0" shadow="0">
      <root>
        <mxCell id="0" />
        <mxCell id="1" parent="0" />
        <mxCell id="7baba1c4bc27f4b0-2" value="페이지" style="shape=umlLifeline;perimeter=lifelinePerimeter;whiteSpace=wrap;html=1;container=1;collapsible=0;recursiveResize=0;outlineConnect=0;rounded=1;shadow=0;comic=0;labelBackgroundColor=none;strokeWidth=1;fontFamily=Verdana;fontSize=12;align=center;" parent="1" vertex="1">
          <mxGeometry x="314" y="109" width="100" height="1771" as="geometry" />
        </mxCell>
        <mxCell id="7baba1c4bc27f4b0-3" value="스토어 / Axios" style="shape=umlLifeline;perimeter=lifelinePerimeter;whiteSpace=wrap;html=1;container=1;collapsible=0;recursiveResize=0;outlineConnect=0;rounded=1;shadow=0;comic=0;labelBackgroundColor=none;strokeWidth=1;fontFamily=Verdana;fontSize=12;align=center;movable=1;resizable=1;rotatable=1;deletable=1;editable=1;locked=0;connectable=1;" parent="1" vertex="1">
          <mxGeometry x="534" y="109" width="100" height="1771" as="geometry" />
        </mxCell>
        <mxCell id="7baba1c4bc27f4b0-4" value="KAKAO_API" style="shape=umlLifeline;perimeter=lifelinePerimeter;whiteSpace=wrap;html=1;container=1;collapsible=0;recursiveResize=0;outlineConnect=0;rounded=1;shadow=0;comic=0;labelBackgroundColor=none;strokeWidth=1;fontFamily=Verdana;fontSize=12;align=center;" parent="1" vertex="1">
          <mxGeometry x="909" y="109" width="100" height="1771" as="geometry" />
        </mxCell>
        <mxCell id="7baba1c4bc27f4b0-8" value="유저" style="shape=umlLifeline;perimeter=lifelinePerimeter;whiteSpace=wrap;html=1;container=1;collapsible=0;recursiveResize=0;outlineConnect=0;rounded=1;shadow=0;comic=0;labelBackgroundColor=none;strokeWidth=1;fontFamily=Verdana;fontSize=12;align=center;" parent="1" vertex="1">
          <mxGeometry x="94" y="109" width="100" height="1771" as="geometry" />
        </mxCell>
        <mxCell id="7baba1c4bc27f4b0-11" value="1. 목적지 추가 버튼 클릭" style="html=1;verticalAlign=bottom;endArrow=block;labelBackgroundColor=none;fontFamily=Helvetica;fontSize=12;edgeStyle=elbowEdgeStyle;elbow=vertical;align=left;fontStyle=1" parent="1" edge="1">
          <mxGeometry x="-1" relative="1" as="geometry">
            <mxPoint x="143.5" y="210" as="sourcePoint" />
            <mxPoint x="363.5" y="210" as="targetPoint" />
            <mxPoint as="offset" />
          </mxGeometry>
        </mxCell>
        <mxCell id="d7kwrDIypniRsh-_axAG-28" value="유저" style="rounded=1;whiteSpace=wrap;html=1;fontSize=12;" parent="1" vertex="1">
          <mxGeometry x="94" y="1880" width="100" height="40" as="geometry" />
        </mxCell>
        <mxCell id="d7kwrDIypniRsh-_axAG-29" value="페이지" style="rounded=1;whiteSpace=wrap;html=1;fontSize=12;" parent="1" vertex="1">
          <mxGeometry x="314" y="1880" width="100" height="40" as="geometry" />
        </mxCell>
        <mxCell id="d7kwrDIypniRsh-_axAG-30" value="스토어 / Axios" style="rounded=1;whiteSpace=wrap;html=1;fontSize=12;" parent="1" vertex="1">
          <mxGeometry x="534" y="1880" width="100" height="40" as="geometry" />
        </mxCell>
        <mxCell id="d7kwrDIypniRsh-_axAG-31" value="KAKAO_API" style="rounded=1;whiteSpace=wrap;html=1;fontSize=12;" parent="1" vertex="1">
          <mxGeometry x="909" y="1880" width="100" height="40" as="geometry" />
        </mxCell>
        <mxCell id="d7kwrDIypniRsh-_axAG-33" value="&lt;span style=&quot;font-size: 25px;&quot;&gt;&lt;b&gt;세부 플랜 작성 / 삭제 기능&lt;/b&gt;&lt;/span&gt;" style="text;html=1;strokeColor=none;fillColor=none;align=center;verticalAlign=middle;whiteSpace=wrap;rounded=0;fontSize=12;" parent="1" vertex="1">
          <mxGeometry x="154" y="40" width="792" height="30" as="geometry" />
        </mxCell>
        <mxCell id="fj5dnLexoJdEt0vvxZNv-23" value="백엔드 API" style="shape=umlLifeline;perimeter=lifelinePerimeter;whiteSpace=wrap;html=1;container=1;collapsible=0;recursiveResize=0;outlineConnect=0;rounded=1;shadow=0;comic=0;labelBackgroundColor=none;strokeWidth=1;fontFamily=Verdana;fontSize=12;align=center;" parent="1" vertex="1">
          <mxGeometry x="764" y="109" width="100" height="1771" as="geometry" />
        </mxCell>
        <mxCell id="fj5dnLexoJdEt0vvxZNv-26" value="백엔드 API" style="rounded=1;whiteSpace=wrap;html=1;fontSize=12;" parent="1" vertex="1">
          <mxGeometry x="764" y="1880" width="100" height="40" as="geometry" />
        </mxCell>
        <mxCell id="fj5dnLexoJdEt0vvxZNv-44" value="11. 플랜 내 목적지들에 대한 좌표 및 커스텀 오버레이 이미지 URL 전달" style="html=1;verticalAlign=bottom;endArrow=block;labelBackgroundColor=none;fontFamily=Helvetica;fontSize=12;edgeStyle=elbowEdgeStyle;elbow=vertical;align=left;fontStyle=1" parent="1" edge="1">
          <mxGeometry x="-0.9985" relative="1" as="geometry">
            <mxPoint x="363.5" y="1285.33" as="sourcePoint" />
            <mxPoint x="958" y="1285" as="targetPoint" />
            <mxPoint as="offset" />
          </mxGeometry>
        </mxCell>
        <mxCell id="fj5dnLexoJdEt0vvxZNv-48" value="12. 카카오 지도 상 목적지 좌표에 커스텀 오버레이 표시" style="endArrow=classic;html=1;rounded=0;dashed=1;align=right;fontSize=12;fontStyle=1" parent="1" edge="1">
          <mxGeometry x="-1" y="-10" width="50" height="50" relative="1" as="geometry">
            <mxPoint x="958" y="1328" as="sourcePoint" />
            <mxPoint x="143" y="1328" as="targetPoint" />
            <Array as="points">
              <mxPoint x="563.5" y="1328" />
            </Array>
            <mxPoint x="1" as="offset" />
          </mxGeometry>
        </mxCell>
        <mxCell id="fj5dnLexoJdEt0vvxZNv-49" value="세부 플랜 작성" style="shape=umlFrame;whiteSpace=wrap;html=1;pointerEvents=0;width=90;height=20;fillColor=#d5e8d4;strokeColor=#82b366;" parent="1" vertex="1">
          <mxGeometry x="74" y="170" width="930" height="1200" as="geometry" />
        </mxCell>
        <mxCell id="fj5dnLexoJdEt0vvxZNv-80" value="2. 장소 추가 관련 선택지 화면 노출" style="endArrow=classic;html=1;rounded=0;dashed=1;align=right;fontSize=12;fontStyle=1" parent="1" edge="1">
          <mxGeometry x="-1" y="-10" width="50" height="50" relative="1" as="geometry">
            <mxPoint x="364" y="250" as="sourcePoint" />
            <mxPoint x="144" y="250" as="targetPoint" />
            <Array as="points">
              <mxPoint x="364" y="250" />
              <mxPoint x="334" y="250" />
            </Array>
            <mxPoint as="offset" />
          </mxGeometry>
        </mxCell>
        <mxCell id="N0yfgly27lMoUbKmG3n6-20" value="3-1. 장소 검색 버튼 클릭" style="html=1;verticalAlign=bottom;endArrow=block;labelBackgroundColor=none;fontFamily=Helvetica;fontSize=12;edgeStyle=elbowEdgeStyle;elbow=vertical;align=left;fontStyle=1" edge="1" parent="1">
          <mxGeometry x="-1" relative="1" as="geometry">
            <mxPoint x="144" y="298" as="sourcePoint" />
            <mxPoint x="364" y="298" as="targetPoint" />
            <mxPoint as="offset" />
          </mxGeometry>
        </mxCell>
        <mxCell id="N0yfgly27lMoUbKmG3n6-21" value="3-2. 장소 검색 화면 노출" style="endArrow=classic;html=1;rounded=0;dashed=1;align=right;fontSize=12;fontStyle=1" edge="1" parent="1">
          <mxGeometry x="-1" y="-10" width="50" height="50" relative="1" as="geometry">
            <mxPoint x="363" y="333" as="sourcePoint" />
            <mxPoint x="143" y="333" as="targetPoint" />
            <Array as="points">
              <mxPoint x="363" y="333" />
              <mxPoint x="333" y="333" />
            </Array>
            <mxPoint as="offset" />
          </mxGeometry>
        </mxCell>
        <mxCell id="N0yfgly27lMoUbKmG3n6-22" value="3-3. 주소 및 카테고리 선택 후 검색" style="html=1;verticalAlign=bottom;endArrow=block;labelBackgroundColor=none;fontFamily=Helvetica;fontSize=12;edgeStyle=elbowEdgeStyle;elbow=vertical;align=left;fontStyle=1" edge="1" parent="1">
          <mxGeometry x="-1" relative="1" as="geometry">
            <mxPoint x="144" y="370" as="sourcePoint" />
            <mxPoint x="364" y="370" as="targetPoint" />
            <mxPoint as="offset" />
          </mxGeometry>
        </mxCell>
        <mxCell id="N0yfgly27lMoUbKmG3n6-23" value="3-4. 백엔드 API 서버 통신 요청" style="html=1;verticalAlign=bottom;endArrow=block;labelBackgroundColor=none;fontFamily=Helvetica;fontSize=12;edgeStyle=elbowEdgeStyle;elbow=vertical;align=left;fontStyle=1" edge="1" parent="1">
          <mxGeometry x="-1" relative="1" as="geometry">
            <mxPoint x="363" y="400" as="sourcePoint" />
            <mxPoint x="583.5" y="400" as="targetPoint" />
            <mxPoint as="offset" />
          </mxGeometry>
        </mxCell>
        <mxCell id="N0yfgly27lMoUbKmG3n6-24" value="3-5. [GET] /api/v1/places" style="html=1;verticalAlign=bottom;endArrow=block;labelBackgroundColor=none;fontFamily=Helvetica;fontSize=12;edgeStyle=elbowEdgeStyle;elbow=vertical;align=left;fontStyle=1;" edge="1" parent="1">
          <mxGeometry x="-1" relative="1" as="geometry">
            <mxPoint x="582.5" y="420" as="sourcePoint" />
            <mxPoint x="813" y="420" as="targetPoint" />
            <mxPoint as="offset" />
            <Array as="points">
              <mxPoint x="813" y="420" />
            </Array>
          </mxGeometry>
        </mxCell>
        <mxCell id="N0yfgly27lMoUbKmG3n6-25" value="3-6. 카카오 지도 API 호출" style="html=1;verticalAlign=bottom;endArrow=block;labelBackgroundColor=none;fontFamily=Helvetica;fontSize=12;edgeStyle=elbowEdgeStyle;elbow=vertical;align=left;fontStyle=1" edge="1" parent="1">
          <mxGeometry x="-1" relative="1" as="geometry">
            <mxPoint x="813" y="440" as="sourcePoint" />
            <mxPoint x="957.5" y="440" as="targetPoint" />
            <mxPoint as="offset" />
          </mxGeometry>
        </mxCell>
        <mxCell id="N0yfgly27lMoUbKmG3n6-26" value="3-7. 장소 정보 제공" style="endArrow=classic;html=1;rounded=0;dashed=1;align=right;fontSize=12;fontStyle=1" edge="1" parent="1">
          <mxGeometry x="-1" y="-10" width="50" height="50" relative="1" as="geometry">
            <mxPoint x="958" y="471" as="sourcePoint" />
            <mxPoint x="813" y="471" as="targetPoint" />
            <Array as="points">
              <mxPoint x="923" y="471" />
              <mxPoint x="893" y="471" />
            </Array>
            <mxPoint x="1" as="offset" />
          </mxGeometry>
        </mxCell>
        <mxCell id="N0yfgly27lMoUbKmG3n6-27" value="3-8. 장소 정보 업데이트 및&lt;br&gt;결과 데이터 전달" style="endArrow=classic;html=1;rounded=0;dashed=1;align=right;fontSize=12;fontStyle=1" edge="1" parent="1">
          <mxGeometry x="-1" y="-20" width="50" height="50" relative="1" as="geometry">
            <mxPoint x="813" y="491" as="sourcePoint" />
            <mxPoint x="583" y="491" as="targetPoint" />
            <Array as="points">
              <mxPoint x="763" y="491" />
              <mxPoint x="733" y="491" />
            </Array>
            <mxPoint x="1" as="offset" />
          </mxGeometry>
        </mxCell>
        <mxCell id="N0yfgly27lMoUbKmG3n6-28" value="3-9. 결과값 저장 및 컴포넌트에 전달" style="endArrow=classic;html=1;rounded=0;dashed=1;align=right;fontSize=12;fontStyle=1" edge="1" parent="1">
          <mxGeometry x="-1" y="-10" width="50" height="50" relative="1" as="geometry">
            <mxPoint x="583" y="510" as="sourcePoint" />
            <mxPoint x="363" y="510" as="targetPoint" />
            <Array as="points">
              <mxPoint x="563" y="510" />
            </Array>
            <mxPoint x="1" as="offset" />
          </mxGeometry>
        </mxCell>
        <mxCell id="N0yfgly27lMoUbKmG3n6-29" value="3-10. 장소 리스트 화면 처리" style="endArrow=classic;html=1;rounded=0;dashed=1;align=right;fontSize=12;fontStyle=1" edge="1" parent="1">
          <mxGeometry x="-1" y="-10" width="50" height="50" relative="1" as="geometry">
            <mxPoint x="363" y="531" as="sourcePoint" />
            <mxPoint x="143" y="531" as="targetPoint" />
            <Array as="points">
              <mxPoint x="363" y="531" />
              <mxPoint x="333" y="531" />
            </Array>
            <mxPoint as="offset" />
          </mxGeometry>
        </mxCell>
        <mxCell id="N0yfgly27lMoUbKmG3n6-30" value="3-11. 장소 리스트 내 장소 좌표, 커스텀 마커 이미지 URL 전달하여 카카오 지도 API 호출" style="html=1;verticalAlign=bottom;endArrow=block;labelBackgroundColor=none;fontFamily=Helvetica;fontSize=12;edgeStyle=elbowEdgeStyle;elbow=vertical;align=left;fontStyle=1" edge="1" parent="1">
          <mxGeometry x="-1" relative="1" as="geometry">
            <mxPoint x="364" y="548" as="sourcePoint" />
            <mxPoint x="958" y="548" as="targetPoint" />
            <mxPoint as="offset" />
          </mxGeometry>
        </mxCell>
        <mxCell id="N0yfgly27lMoUbKmG3n6-31" value="3-12. 카카오 지도 + 마커 출력" style="endArrow=classic;html=1;rounded=0;dashed=1;align=right;fontSize=12;fontStyle=1" edge="1" parent="1">
          <mxGeometry x="-1" y="-10" width="50" height="50" relative="1" as="geometry">
            <mxPoint x="958" y="571" as="sourcePoint" />
            <mxPoint x="143" y="571" as="targetPoint" />
            <Array as="points">
              <mxPoint x="923" y="571" />
              <mxPoint x="893" y="571" />
            </Array>
            <mxPoint x="1" as="offset" />
          </mxGeometry>
        </mxCell>
        <mxCell id="N0yfgly27lMoUbKmG3n6-32" value="3-11. 장소 리스트 내 장소 선택" style="html=1;verticalAlign=bottom;endArrow=block;labelBackgroundColor=none;fontFamily=Helvetica;fontSize=12;edgeStyle=elbowEdgeStyle;elbow=vertical;align=left;fontStyle=1" edge="1" parent="1">
          <mxGeometry x="-1" relative="1" as="geometry">
            <mxPoint x="143" y="620" as="sourcePoint" />
            <mxPoint x="363" y="620" as="targetPoint" />
            <mxPoint as="offset" />
          </mxGeometry>
        </mxCell>
        <mxCell id="N0yfgly27lMoUbKmG3n6-34" value="3-12. 목적지 상태값 업데이트 요청" style="html=1;verticalAlign=bottom;endArrow=block;labelBackgroundColor=none;fontFamily=Helvetica;fontSize=12;edgeStyle=elbowEdgeStyle;elbow=vertical;align=left;fontStyle=1" edge="1" parent="1">
          <mxGeometry x="-1" relative="1" as="geometry">
            <mxPoint x="365" y="640" as="sourcePoint" />
            <mxPoint x="585.5" y="640" as="targetPoint" />
            <mxPoint as="offset" />
          </mxGeometry>
        </mxCell>
        <mxCell id="N0yfgly27lMoUbKmG3n6-36" value="3-13. 결과값 저장 및 컴포넌트에 전달" style="endArrow=classic;html=1;rounded=0;dashed=1;align=right;fontSize=12;fontStyle=1" edge="1" parent="1">
          <mxGeometry x="-1" y="-10" width="50" height="50" relative="1" as="geometry">
            <mxPoint x="584" y="670" as="sourcePoint" />
            <mxPoint x="364" y="670" as="targetPoint" />
            <Array as="points">
              <mxPoint x="564" y="670" />
            </Array>
            <mxPoint x="1" as="offset" />
          </mxGeometry>
        </mxCell>
        <mxCell id="N0yfgly27lMoUbKmG3n6-37" value="3-14. 목적지 등록 화면 처리" style="endArrow=classic;html=1;rounded=0;dashed=1;align=right;fontSize=12;fontStyle=1" edge="1" parent="1">
          <mxGeometry x="-1" y="-10" width="50" height="50" relative="1" as="geometry">
            <mxPoint x="364" y="691" as="sourcePoint" />
            <mxPoint x="144" y="691" as="targetPoint" />
            <Array as="points">
              <mxPoint x="364" y="691" />
              <mxPoint x="334" y="691" />
            </Array>
            <mxPoint as="offset" />
          </mxGeometry>
        </mxCell>
        <mxCell id="N0yfgly27lMoUbKmG3n6-38" value="장소 검색 시" style="shape=umlFrame;whiteSpace=wrap;html=1;pointerEvents=0;width=90;height=20;fillColor=#dae8fc;strokeColor=#6c8ebf;" vertex="1" parent="1">
          <mxGeometry x="84" y="260" width="906" height="460" as="geometry" />
        </mxCell>
        <mxCell id="N0yfgly27lMoUbKmG3n6-39" value="4-1. 북마크 장소 검색 버튼 클릭" style="html=1;verticalAlign=bottom;endArrow=block;labelBackgroundColor=none;fontFamily=Helvetica;fontSize=12;edgeStyle=elbowEdgeStyle;elbow=vertical;align=left;fontStyle=1" edge="1" parent="1">
          <mxGeometry x="-0.9971" relative="1" as="geometry">
            <mxPoint x="144" y="786.5" as="sourcePoint" />
            <mxPoint x="364" y="786.5" as="targetPoint" />
            <mxPoint as="offset" />
          </mxGeometry>
        </mxCell>
        <mxCell id="N0yfgly27lMoUbKmG3n6-40" value="4-2. 백엔드 API 서버 통신 요청" style="html=1;verticalAlign=bottom;endArrow=block;labelBackgroundColor=none;fontFamily=Helvetica;fontSize=12;edgeStyle=elbowEdgeStyle;elbow=vertical;align=left;fontStyle=1" edge="1" parent="1">
          <mxGeometry x="-1" relative="1" as="geometry">
            <mxPoint x="363" y="816.5" as="sourcePoint" />
            <mxPoint x="583.5" y="816.5" as="targetPoint" />
            <mxPoint as="offset" />
          </mxGeometry>
        </mxCell>
        <mxCell id="N0yfgly27lMoUbKmG3n6-41" value="4-3. [GET] /api/v1/bookmarks" style="html=1;verticalAlign=bottom;endArrow=block;labelBackgroundColor=none;fontFamily=Helvetica;fontSize=12;edgeStyle=elbowEdgeStyle;elbow=vertical;align=left;fontStyle=1;" edge="1" parent="1">
          <mxGeometry x="-1" relative="1" as="geometry">
            <mxPoint x="582.5" y="836.5" as="sourcePoint" />
            <mxPoint x="813" y="836.5" as="targetPoint" />
            <mxPoint as="offset" />
            <Array as="points">
              <mxPoint x="813" y="836.5" />
            </Array>
          </mxGeometry>
        </mxCell>
        <mxCell id="N0yfgly27lMoUbKmG3n6-42" value="4-4. 사용자 북마크 장소 리스트&lt;br&gt;결과 데이터 전달" style="endArrow=classic;html=1;rounded=0;dashed=1;align=right;fontSize=12;fontStyle=1" edge="1" parent="1">
          <mxGeometry x="-1" y="-20" width="50" height="50" relative="1" as="geometry">
            <mxPoint x="813" y="891.5" as="sourcePoint" />
            <mxPoint x="583" y="891.5" as="targetPoint" />
            <Array as="points">
              <mxPoint x="763" y="891.5" />
              <mxPoint x="733" y="891.5" />
            </Array>
            <mxPoint x="1" as="offset" />
          </mxGeometry>
        </mxCell>
        <mxCell id="N0yfgly27lMoUbKmG3n6-43" value="4-5. 결과값 저장 및 컴포넌트에 전달" style="endArrow=classic;html=1;rounded=0;dashed=1;align=right;fontSize=12;fontStyle=1" edge="1" parent="1">
          <mxGeometry x="-1" y="-10" width="50" height="50" relative="1" as="geometry">
            <mxPoint x="583" y="910.5" as="sourcePoint" />
            <mxPoint x="363" y="910.5" as="targetPoint" />
            <Array as="points">
              <mxPoint x="563" y="910.5" />
            </Array>
            <mxPoint x="1" as="offset" />
          </mxGeometry>
        </mxCell>
        <mxCell id="N0yfgly27lMoUbKmG3n6-44" value="4-6. 북마크 장소 리스트 화면 처리" style="endArrow=classic;html=1;rounded=0;dashed=1;align=right;fontSize=12;fontStyle=1" edge="1" parent="1">
          <mxGeometry x="-1" y="-10" width="50" height="50" relative="1" as="geometry">
            <mxPoint x="363" y="931.5" as="sourcePoint" />
            <mxPoint x="143" y="931.5" as="targetPoint" />
            <Array as="points">
              <mxPoint x="363" y="931.5" />
              <mxPoint x="333" y="931.5" />
            </Array>
            <mxPoint as="offset" />
          </mxGeometry>
        </mxCell>
        <mxCell id="N0yfgly27lMoUbKmG3n6-45" value="4-7. 북마크 장소 리스트 내 장소 선택" style="html=1;verticalAlign=bottom;endArrow=block;labelBackgroundColor=none;fontFamily=Helvetica;fontSize=12;edgeStyle=elbowEdgeStyle;elbow=vertical;align=left;fontStyle=1" edge="1" parent="1">
          <mxGeometry x="-1" relative="1" as="geometry">
            <mxPoint x="142.75" y="970" as="sourcePoint" />
            <mxPoint x="362.75" y="970" as="targetPoint" />
            <mxPoint as="offset" />
          </mxGeometry>
        </mxCell>
        <mxCell id="N0yfgly27lMoUbKmG3n6-46" value="4-8. 목적지 상태값 업데이트 요청" style="html=1;verticalAlign=bottom;endArrow=block;labelBackgroundColor=none;fontFamily=Helvetica;fontSize=12;edgeStyle=elbowEdgeStyle;elbow=vertical;align=left;fontStyle=1" edge="1" parent="1">
          <mxGeometry x="-1" relative="1" as="geometry">
            <mxPoint x="364.75" y="990" as="sourcePoint" />
            <mxPoint x="585.25" y="990" as="targetPoint" />
            <mxPoint as="offset" />
          </mxGeometry>
        </mxCell>
        <mxCell id="N0yfgly27lMoUbKmG3n6-47" value="4-9. 결과값 저장 및 컴포넌트에 전달" style="endArrow=classic;html=1;rounded=0;dashed=1;align=right;fontSize=12;fontStyle=1" edge="1" parent="1">
          <mxGeometry x="-1" y="-10" width="50" height="50" relative="1" as="geometry">
            <mxPoint x="583.75" y="1020" as="sourcePoint" />
            <mxPoint x="363.75" y="1020" as="targetPoint" />
            <Array as="points">
              <mxPoint x="563.75" y="1020" />
            </Array>
            <mxPoint x="1" as="offset" />
          </mxGeometry>
        </mxCell>
        <mxCell id="N0yfgly27lMoUbKmG3n6-48" value="4-10. 목적지 등록 화면 처리" style="endArrow=classic;html=1;rounded=0;dashed=1;align=right;fontSize=12;fontStyle=1" edge="1" parent="1">
          <mxGeometry x="-1" y="-10" width="50" height="50" relative="1" as="geometry">
            <mxPoint x="363.75" y="1041" as="sourcePoint" />
            <mxPoint x="143.75" y="1041" as="targetPoint" />
            <Array as="points">
              <mxPoint x="363.75" y="1041" />
              <mxPoint x="333.75" y="1041" />
            </Array>
            <mxPoint as="offset" />
          </mxGeometry>
        </mxCell>
        <mxCell id="N0yfgly27lMoUbKmG3n6-49" value="북마크 장소 검색 시" style="shape=umlFrame;whiteSpace=wrap;html=1;pointerEvents=0;width=126;height=18;fillColor=#e1d5e7;strokeColor=#9673a6;" vertex="1" parent="1">
          <mxGeometry x="84" y="742" width="906" height="328" as="geometry" />
        </mxCell>
        <mxCell id="N0yfgly27lMoUbKmG3n6-50" value="5. 목적지 등록 버튼 클릭" style="html=1;verticalAlign=bottom;endArrow=block;labelBackgroundColor=none;fontFamily=Helvetica;fontSize=12;edgeStyle=elbowEdgeStyle;elbow=vertical;align=left;fontStyle=1" edge="1" parent="1">
          <mxGeometry x="-1" relative="1" as="geometry">
            <mxPoint x="145" y="1120" as="sourcePoint" />
            <mxPoint x="365" y="1120" as="targetPoint" />
            <mxPoint as="offset" />
          </mxGeometry>
        </mxCell>
        <mxCell id="N0yfgly27lMoUbKmG3n6-51" value="6. 백엔드 API 서버 통신 요청" style="html=1;verticalAlign=bottom;endArrow=block;labelBackgroundColor=none;fontFamily=Helvetica;fontSize=12;edgeStyle=elbowEdgeStyle;elbow=vertical;align=left;fontStyle=1" edge="1" parent="1">
          <mxGeometry x="-1" relative="1" as="geometry">
            <mxPoint x="364" y="1150" as="sourcePoint" />
            <mxPoint x="584.5" y="1150" as="targetPoint" />
            <mxPoint as="offset" />
          </mxGeometry>
        </mxCell>
        <mxCell id="N0yfgly27lMoUbKmG3n6-52" value="7. [POST] /api/v1/detailPlans" style="html=1;verticalAlign=bottom;endArrow=block;labelBackgroundColor=none;fontFamily=Helvetica;fontSize=12;edgeStyle=elbowEdgeStyle;elbow=vertical;align=left;fontStyle=1;" edge="1" parent="1">
          <mxGeometry x="-1" relative="1" as="geometry">
            <mxPoint x="583.5" y="1170" as="sourcePoint" />
            <mxPoint x="814" y="1170" as="targetPoint" />
            <mxPoint as="offset" />
            <Array as="points">
              <mxPoint x="814" y="1170" />
            </Array>
          </mxGeometry>
        </mxCell>
        <mxCell id="N0yfgly27lMoUbKmG3n6-54" value="9. 결과값 저장 및 컴포넌트에 전달" style="endArrow=classic;html=1;rounded=0;dashed=1;align=right;fontSize=12;fontStyle=1" edge="1" parent="1">
          <mxGeometry x="-1" y="-10" width="50" height="50" relative="1" as="geometry">
            <mxPoint x="584" y="1244" as="sourcePoint" />
            <mxPoint x="364" y="1244" as="targetPoint" />
            <Array as="points">
              <mxPoint x="564" y="1244" />
            </Array>
            <mxPoint x="1" as="offset" />
          </mxGeometry>
        </mxCell>
        <mxCell id="N0yfgly27lMoUbKmG3n6-55" value="10. 세부 플랜 리스트 화면 처리" style="endArrow=classic;html=1;rounded=0;dashed=1;align=right;fontSize=12;fontStyle=1" edge="1" parent="1">
          <mxGeometry x="-1" y="-10" width="50" height="50" relative="1" as="geometry">
            <mxPoint x="364" y="1265" as="sourcePoint" />
            <mxPoint x="144" y="1265" as="targetPoint" />
            <Array as="points">
              <mxPoint x="364" y="1265" />
              <mxPoint x="334" y="1265" />
            </Array>
            <mxPoint as="offset" />
          </mxGeometry>
        </mxCell>
        <mxCell id="N0yfgly27lMoUbKmG3n6-58" value="8. 세부 플랜 등록 후 업데이트" style="endArrow=classic;html=1;rounded=0;dashed=1;align=right;fontSize=12;fontStyle=1" edge="1" parent="1" target="7baba1c4bc27f4b0-3">
          <mxGeometry x="-1" y="-10" width="50" height="50" relative="1" as="geometry">
            <mxPoint x="815" y="1220" as="sourcePoint" />
            <mxPoint x="670" y="1220" as="targetPoint" />
            <Array as="points">
              <mxPoint x="780" y="1220" />
              <mxPoint x="750" y="1220" />
            </Array>
            <mxPoint x="1" as="offset" />
          </mxGeometry>
        </mxCell>
        <mxCell id="N0yfgly27lMoUbKmG3n6-59" value="11. 세부 플랜 삭제 버튼 클릭" style="html=1;verticalAlign=bottom;endArrow=block;labelBackgroundColor=none;fontFamily=Helvetica;fontSize=12;edgeStyle=elbowEdgeStyle;elbow=vertical;align=left;fontStyle=1" edge="1" parent="1">
          <mxGeometry x="-0.9971" relative="1" as="geometry">
            <mxPoint x="144" y="1450.26" as="sourcePoint" />
            <mxPoint x="364" y="1450.26" as="targetPoint" />
            <mxPoint as="offset" />
          </mxGeometry>
        </mxCell>
        <mxCell id="N0yfgly27lMoUbKmG3n6-60" value="12. 백엔드 API 서버 통신 요청" style="html=1;verticalAlign=bottom;endArrow=block;labelBackgroundColor=none;fontFamily=Helvetica;fontSize=12;edgeStyle=elbowEdgeStyle;elbow=vertical;align=left;fontStyle=1" edge="1" parent="1">
          <mxGeometry x="-1" relative="1" as="geometry">
            <mxPoint x="363" y="1480.26" as="sourcePoint" />
            <mxPoint x="583.5" y="1480.26" as="targetPoint" />
            <mxPoint as="offset" />
          </mxGeometry>
        </mxCell>
        <mxCell id="N0yfgly27lMoUbKmG3n6-61" value="13. [DELETE] /api/v1/detailPlans/{id}" style="html=1;verticalAlign=bottom;endArrow=block;labelBackgroundColor=none;fontFamily=Helvetica;fontSize=12;edgeStyle=elbowEdgeStyle;elbow=vertical;align=left;fontStyle=1;" edge="1" parent="1">
          <mxGeometry x="-1" relative="1" as="geometry">
            <mxPoint x="582.5" y="1500.26" as="sourcePoint" />
            <mxPoint x="813" y="1500.26" as="targetPoint" />
            <mxPoint as="offset" />
            <Array as="points">
              <mxPoint x="813" y="1500.26" />
            </Array>
          </mxGeometry>
        </mxCell>
        <mxCell id="N0yfgly27lMoUbKmG3n6-63" value="15. 결과값 저장 및 컴포넌트에 전달" style="endArrow=classic;html=1;rounded=0;dashed=1;align=right;fontSize=12;fontStyle=1" edge="1" parent="1">
          <mxGeometry x="-1" y="-10" width="50" height="50" relative="1" as="geometry">
            <mxPoint x="583" y="1574.26" as="sourcePoint" />
            <mxPoint x="363" y="1574.26" as="targetPoint" />
            <Array as="points">
              <mxPoint x="563" y="1574.26" />
            </Array>
            <mxPoint x="1" as="offset" />
          </mxGeometry>
        </mxCell>
        <mxCell id="N0yfgly27lMoUbKmG3n6-64" value="16. 세부 플랜 리스트 화면 처리" style="endArrow=classic;html=1;rounded=0;dashed=1;align=right;fontSize=12;fontStyle=1" edge="1" parent="1">
          <mxGeometry x="-1" y="-10" width="50" height="50" relative="1" as="geometry">
            <mxPoint x="363" y="1595.26" as="sourcePoint" />
            <mxPoint x="143" y="1595.26" as="targetPoint" />
            <Array as="points">
              <mxPoint x="363" y="1595.26" />
              <mxPoint x="333" y="1595.26" />
            </Array>
            <mxPoint as="offset" />
          </mxGeometry>
        </mxCell>
        <mxCell id="N0yfgly27lMoUbKmG3n6-65" value="14. 세부 플랜 삭제 후 업데이트" style="endArrow=classic;html=1;rounded=0;dashed=1;align=right;fontSize=12;fontStyle=1" edge="1" parent="1">
          <mxGeometry x="-1" y="-10" width="50" height="50" relative="1" as="geometry">
            <mxPoint x="811" y="1560" as="sourcePoint" />
            <mxPoint x="580" y="1560" as="targetPoint" />
            <Array as="points">
              <mxPoint x="776" y="1560" />
              <mxPoint x="746" y="1560" />
            </Array>
            <mxPoint x="1" as="offset" />
          </mxGeometry>
        </mxCell>
        <mxCell id="N0yfgly27lMoUbKmG3n6-66" value="17. 플랜 내 목적지들에 대한 좌표 및 커스텀 오버레이 이미지 URL 전달" style="html=1;verticalAlign=bottom;endArrow=block;labelBackgroundColor=none;fontFamily=Helvetica;fontSize=12;edgeStyle=elbowEdgeStyle;elbow=vertical;align=left;fontStyle=1" edge="1" parent="1">
          <mxGeometry x="-0.9985" relative="1" as="geometry">
            <mxPoint x="365" y="1640.33" as="sourcePoint" />
            <mxPoint x="959.5" y="1640" as="targetPoint" />
            <mxPoint as="offset" />
          </mxGeometry>
        </mxCell>
        <mxCell id="N0yfgly27lMoUbKmG3n6-67" value="18. 카카오 지도 상 목적지 좌표에 커스텀 오버레이 표시" style="endArrow=classic;html=1;rounded=0;dashed=1;align=right;fontSize=12;fontStyle=1" edge="1" parent="1">
          <mxGeometry x="-1" y="-10" width="50" height="50" relative="1" as="geometry">
            <mxPoint x="958.5" y="1683" as="sourcePoint" />
            <mxPoint x="143.5" y="1683" as="targetPoint" />
            <Array as="points">
              <mxPoint x="564" y="1683" />
            </Array>
            <mxPoint x="1" as="offset" />
          </mxGeometry>
        </mxCell>
        <mxCell id="N0yfgly27lMoUbKmG3n6-68" value="세부 플랜 삭제" style="shape=umlFrame;whiteSpace=wrap;html=1;pointerEvents=0;width=90;height=20;fillColor=#f8cecc;strokeColor=#b85450;" vertex="1" parent="1">
          <mxGeometry x="74" y="1400" width="930" height="370" as="geometry" />
        </mxCell>
      </root>
    </mxGraphModel>
  </diagram>
</mxfile>
